<svg version="1.1" id="Layer_1" xmlns="http://www.w3.org/2000/svg" xmlns:xlink="http://www.w3.org/1999/xlink" x="0px" y="0px"
	 width="100%" viewBox="0 0 2001 2001" enable-background="new 0 0 2001 2001" xml:space="preserve">
<path fill="#FFFFFF" opacity="1.000000" stroke="none" 
	d="
M1049.000000,2002.000000 
	C699.333313,2002.000000 350.166656,2002.000000 1.000000,2002.000000 
	C1.000000,1335.000000 1.000000,668.000000 1.000000,1.000000 
	C668.000000,1.000000 1335.000000,1.000000 2002.000000,1.000000 
	C2002.000000,668.000000 2002.000000,1335.000000 2002.000000,2002.000000 
	C1684.500000,2002.000000 1367.000000,2002.000000 1049.000000,2002.000000 
M1303.008423,1803.489502 
	C1310.620605,1799.197144 1318.277588,1794.982056 1325.836792,1790.598022 
	C1348.230835,1777.610596 1370.550293,1764.493774 1392.968140,1751.547363 
	C1411.461670,1740.867676 1430.097412,1730.433716 1448.591797,1719.755371 
	C1473.394897,1705.434326 1498.094849,1690.935059 1522.892334,1676.604370 
	C1538.999023,1667.296143 1555.250000,1658.237671 1571.347900,1648.914551 
	C1593.615479,1636.018188 1615.757324,1622.905029 1638.031738,1610.020508 
	C1658.476440,1598.194580 1679.061035,1586.610474 1699.519287,1574.807739 
	C1722.789307,1561.382935 1746.253174,1548.263672 1769.108765,1534.162598 
	C1781.097534,1526.765869 1792.885986,1518.522583 1803.060425,1508.865845 
	C1811.796509,1500.574219 1818.786255,1490.163574 1825.354736,1479.924194 
	C1839.429565,1457.983276 1846.801514,1433.456543 1846.828125,1407.569214 
	C1847.106567,1136.754028 1847.016602,865.938538 1846.909668,595.123169 
	C1846.906860,587.953857 1846.132568,580.671082 1844.728882,573.638672 
	C1841.332764,556.623962 1835.993408,540.281860 1827.092651,525.163391 
	C1816.406860,507.012817 1803.567261,490.580933 1785.842285,479.195099 
	C1763.126465,464.603180 1739.559692,451.324280 1716.219849,437.718842 
	C1695.392944,425.578217 1674.334473,413.835236 1653.453979,401.785522 
	C1628.647705,387.470215 1603.943848,372.977509 1579.154663,358.632294 
	C1561.229370,348.259155 1543.210083,338.048492 1525.282837,327.678802 
	C1506.793091,316.983765 1488.402344,306.117767 1469.897949,295.448456 
	C1451.396851,284.781036 1432.766479,274.337585 1414.270264,263.661743 
	C1394.232666,252.096298 1374.325684,240.304703 1354.286255,228.742554 
	C1333.404907,216.694626 1312.388428,204.880646 1291.512817,192.822754 
	C1266.568481,178.414825 1241.734985,163.815048 1216.806274,149.379974 
	C1202.945190,141.353668 1188.950439,133.558029 1175.083618,125.541656 
	C1158.974243,116.228951 1142.974121,106.727196 1126.861450,97.420364 
	C1110.608765,88.032654 1094.118286,79.047119 1078.019531,69.404999 
	C1058.900391,57.953770 1038.227783,51.185917 1016.229675,49.234718 
	C1004.926514,48.232151 993.379211,49.270596 981.992798,50.089329 
	C965.812744,51.252739 950.344360,55.934139 936.193665,63.579613 
	C913.138123,76.036331 890.628479,89.504326 867.905457,102.575180 
	C852.898743,111.207436 837.943420,119.929260 822.925720,128.542313 
	C806.787354,137.798096 790.580322,146.934113 774.445618,156.196106 
	C760.830566,164.011658 747.269531,171.921463 733.696594,179.810028 
	C717.604797,189.162445 701.558472,198.593582 685.432007,207.885574 
	C669.313232,217.173096 653.081604,226.264847 636.969055,235.562943 
	C618.467773,246.239532 600.077332,257.108093 581.574524,267.782043 
	C565.459656,277.078400 549.209595,286.140533 533.101990,295.449280 
	C510.688110,308.402405 488.387970,321.552460 465.970154,334.498749 
	C447.476410,345.178894 428.840851,355.613403 410.344208,366.288605 
	C390.306000,377.853546 370.390289,389.630646 350.357330,401.204712 
	C331.722534,411.971008 312.966675,422.527771 294.331970,433.294159 
	C274.299072,444.868317 254.465683,456.792572 234.320450,468.165924 
	C216.749954,478.085602 201.663239,490.713715 189.011276,506.427307 
	C166.697266,534.140991 156.173798,566.183716 156.140152,601.257568 
	C155.884216,868.072998 155.981613,1134.888794 156.085266,1401.704468 
	C156.088501,1410.051514 156.693390,1418.516357 158.166000,1426.720215 
	C161.258972,1443.951416 166.598007,1460.458252 175.297089,1475.866089 
	C187.025650,1496.639893 202.217743,1514.366577 222.432495,1526.870361 
	C250.363342,1544.146606 278.998444,1560.289307 307.419220,1576.767090 
	C329.811646,1589.749512 352.371216,1602.443481 374.792664,1615.376343 
	C399.458282,1629.603638 424.023682,1644.004639 448.683441,1658.242188 
	C471.242432,1671.266968 493.897980,1684.124512 516.457764,1697.147827 
	C539.724060,1710.579224 562.910522,1724.148804 586.161987,1737.605713 
	C600.164917,1745.709839 614.249023,1753.673706 628.254150,1761.773926 
	C646.182068,1772.142578 664.054688,1782.606934 681.974548,1792.989624 
	C696.533813,1801.425293 711.129272,1809.798462 725.705200,1818.205444 
	C743.504150,1828.471436 761.287048,1838.765381 779.100586,1849.006104 
	C793.410645,1857.232544 807.783020,1865.350708 822.078979,1873.601562 
	C840.152710,1884.032715 858.160706,1894.577759 876.227539,1905.020874 
	C890.519653,1913.281860 905.107056,1921.061646 919.124512,1929.761841 
	C949.529175,1948.633545 982.159119,1956.907715 1017.955872,1953.128052 
	C1036.952515,1951.122437 1054.835571,1945.860962 1071.519287,1936.941650 
	C1088.054810,1928.101318 1104.072754,1918.295410 1120.345703,1908.961548 
	C1141.399658,1896.885254 1162.517822,1884.920532 1183.540405,1872.789795 
	C1203.579834,1861.226685 1223.509521,1849.473389 1243.528442,1837.874268 
	C1263.127441,1826.518311 1282.778320,1815.251953 1303.008423,1803.489502 
z"/>
<path fill="#11584C" opacity="1.000000" stroke="none" 
	d="
M1302.707520,1803.717896 
	C1282.778320,1815.251953 1263.127441,1826.518311 1243.528442,1837.874268 
	C1223.509521,1849.473389 1203.579834,1861.226685 1183.540405,1872.789795 
	C1162.517822,1884.920532 1141.399658,1896.885254 1120.345703,1908.961548 
	C1104.072754,1918.295410 1088.054810,1928.101318 1071.519287,1936.941650 
	C1054.835571,1945.860962 1036.952515,1951.122437 1017.955872,1953.128052 
	C982.159119,1956.907715 949.529175,1948.633545 919.124512,1929.761841 
	C905.107056,1921.061646 890.519653,1913.281860 876.227539,1905.020874 
	C858.160706,1894.577759 840.152710,1884.032715 822.078979,1873.601562 
	C807.783020,1865.350708 793.410645,1857.232544 779.100586,1849.006104 
	C761.287048,1838.765381 743.504150,1828.471436 725.705200,1818.205444 
	C711.129272,1809.798462 696.533813,1801.425293 681.974548,1792.989624 
	C664.054688,1782.606934 646.182068,1772.142578 628.254150,1761.773926 
	C614.249023,1753.673706 600.164917,1745.709839 586.161987,1737.605713 
	C562.910522,1724.148804 539.724060,1710.579224 516.457764,1697.147827 
	C493.897980,1684.124512 471.242432,1671.266968 448.683441,1658.242188 
	C424.023682,1644.004639 399.458282,1629.603638 374.792664,1615.376343 
	C352.371216,1602.443481 329.811646,1589.749512 307.419220,1576.767090 
	C278.998444,1560.289307 250.363342,1544.146606 222.432495,1526.870361 
	C202.217743,1514.366577 187.025650,1496.639893 175.297089,1475.866089 
	C166.598007,1460.458252 161.258972,1443.951416 158.166000,1426.720215 
	C156.693390,1418.516357 156.088501,1410.051514 156.085266,1401.704468 
	C155.981613,1134.888794 155.884216,868.072998 156.140152,601.257568 
	C156.173798,566.183716 166.697266,534.140991 189.011276,506.427307 
	C201.663239,490.713715 216.749954,478.085602 234.320450,468.165924 
	C254.465683,456.792572 274.299072,444.868317 294.331970,433.294159 
	C312.966675,422.527771 331.722534,411.971008 350.357330,401.204712 
	C370.390289,389.630646 390.306000,377.853546 410.344208,366.288605 
	C428.840851,355.613403 447.476410,345.178894 465.970154,334.498749 
	C488.387970,321.552460 510.688110,308.402405 533.101990,295.449280 
	C549.209595,286.140533 565.459656,277.078400 581.574524,267.782043 
	C600.077332,257.108093 618.467773,246.239532 636.969055,235.562943 
	C653.081604,226.264847 669.313232,217.173096 685.432007,207.885574 
	C701.558472,198.593582 717.604797,189.162445 733.696594,179.810028 
	C747.269531,171.921463 760.830566,164.011658 774.445618,156.196106 
	C790.580322,146.934113 806.787354,137.798096 822.925720,128.542313 
	C837.943420,119.929260 852.898743,111.207436 867.905457,102.575180 
	C890.628479,89.504326 913.138123,76.036331 936.193665,63.579613 
	C950.344360,55.934139 965.812744,51.252739 981.992798,50.089329 
	C993.379211,49.270596 1004.926514,48.232151 1016.229675,49.234718 
	C1038.227783,51.185917 1058.900391,57.953770 1078.019531,69.404999 
	C1094.118286,79.047119 1110.608765,88.032654 1126.861450,97.420364 
	C1142.974121,106.727196 1158.974243,116.228951 1175.083618,125.541656 
	C1188.950439,133.558029 1202.945190,141.353668 1216.806274,149.379974 
	C1241.734985,163.815048 1266.568481,178.414825 1291.512817,192.822754 
	C1312.388428,204.880646 1333.404907,216.694626 1354.286255,228.742554 
	C1374.325684,240.304703 1394.232666,252.096298 1414.270264,263.661743 
	C1432.766479,274.337585 1451.396851,284.781036 1469.897949,295.448456 
	C1488.402344,306.117767 1506.793091,316.983765 1525.282837,327.678802 
	C1543.210083,338.048492 1561.229370,348.259155 1579.154663,358.632294 
	C1603.943848,372.977509 1628.647705,387.470215 1653.453979,401.785522 
	C1674.334473,413.835236 1695.392944,425.578217 1716.219849,437.718842 
	C1739.559692,451.324280 1763.126465,464.603180 1785.842285,479.195099 
	C1803.567261,490.580933 1816.406860,507.012817 1827.092651,525.163391 
	C1835.993408,540.281860 1841.332764,556.623962 1844.728882,573.638672 
	C1846.132568,580.671082 1846.906860,587.953857 1846.909668,595.123169 
	C1847.016602,865.938538 1847.106567,1136.754028 1846.828125,1407.569214 
	C1846.801514,1433.456543 1839.429565,1457.983276 1825.354736,1479.924194 
	C1818.786255,1490.163574 1811.796509,1500.574219 1803.060425,1508.865845 
	C1792.885986,1518.522583 1781.097534,1526.765869 1769.108765,1534.162598 
	C1746.253174,1548.263672 1722.789307,1561.382935 1699.519287,1574.807739 
	C1679.061035,1586.610474 1658.476440,1598.194580 1638.031738,1610.020508 
	C1615.757324,1622.905029 1593.615479,1636.018188 1571.347900,1648.914551 
	C1555.250000,1658.237671 1538.999023,1667.296143 1522.892334,1676.604370 
	C1498.094849,1690.935059 1473.394897,1705.434326 1448.591797,1719.755371 
	C1430.097412,1730.433716 1411.461670,1740.867676 1392.968140,1751.547363 
	C1370.550293,1764.493774 1348.230835,1777.610596 1325.836792,1790.598022 
	C1318.277588,1794.982056 1310.620605,1799.197144 1302.707520,1803.717896 
M1351.465820,1173.046021 
	C1357.687012,1188.114014 1363.908203,1203.182129 1370.394531,1218.892456 
	C1367.341797,1218.892456 1365.357300,1218.892456 1363.372681,1218.892456 
	C1303.041992,1218.892456 1242.711182,1218.928833 1182.380737,1218.805664 
	C1178.596436,1218.797974 1176.927368,1219.918091 1175.599609,1223.517944 
	C1169.160156,1240.976074 1162.377197,1258.307617 1155.692871,1275.675293 
	C1148.202515,1295.137695 1140.669678,1314.583862 1133.197266,1334.053223 
	C1131.624878,1338.150024 1130.234375,1342.316772 1128.653076,1346.751465 
	C1278.145996,1346.751465 1426.846313,1346.751465 1576.059814,1346.751465 
	C1575.375488,1345.067505 1574.901611,1343.858398 1574.395874,1342.662476 
	C1535.284668,1250.185547 1496.221069,1157.688232 1457.043457,1065.239380 
	C1414.797363,965.549561 1372.402588,865.922668 1330.160645,766.230957 
	C1315.364258,731.311096 1300.698730,696.333923 1286.326416,661.238403 
	C1284.344116,656.397949 1281.662354,655.190979 1277.025635,655.197144 
	C1220.194946,655.272827 1163.363892,655.283508 1106.533447,655.156311 
	C1103.031982,655.148499 1101.557251,656.493286 1100.319458,659.450378 
	C1089.035034,686.409058 1077.653198,713.327026 1066.274902,740.246277 
	C1041.616089,798.585022 1016.943848,856.918091 992.274658,915.252502 
	C971.223877,965.030823 950.170288,1014.807861 929.117493,1064.585327 
	C891.265991,1154.082397 853.411499,1243.578247 815.569885,1333.079468 
	C813.680847,1337.547241 811.900330,1342.061035 809.843384,1347.107544 
	C820.586731,1347.107544 830.406311,1347.107544 840.225891,1347.107544 
	C878.890869,1347.107544 917.556519,1346.999146 956.219971,1347.244629 
	C961.057312,1347.275391 963.402893,1345.728516 964.822266,1341.382202 
	C966.098938,1337.473022 967.884583,1333.729370 969.461792,1329.919312 
	C982.863892,1297.543945 996.268188,1265.169434 1009.674805,1232.796021 
	C1023.591125,1199.191772 1037.510254,1165.588623 1051.429199,1131.985596 
	C1064.902222,1099.459351 1078.379395,1066.934814 1091.849731,1034.407471 
	C1105.702271,1000.957092 1119.550171,967.504639 1133.398193,934.052368 
	C1142.805176,911.328674 1152.207886,888.603271 1161.614502,865.879333 
	C1171.209595,842.699646 1180.800049,819.518188 1190.419189,796.348511 
	C1191.060669,794.803284 1191.926147,793.351196 1193.176147,790.895996 
	C1246.171509,918.857788 1298.662354,1045.601318 1351.465820,1173.046021 
M683.419067,1347.107056 
	C685.511230,1347.107056 687.603394,1347.107056 689.802612,1347.107056 
	C689.802612,1116.308350 689.802612,886.278687 689.802612,655.748169 
	C642.126831,655.748169 594.753723,655.748169 547.305542,655.748169 
	C547.305542,886.191467 547.305542,1116.384155 547.305542,1347.107300 
	C592.551086,1347.107300 637.492981,1347.107300 683.419067,1347.107056 
z"/>
<path fill="#1CF479" opacity="1.000000" stroke="none" 
	d="
M1351.309570,1172.695435 
	C1298.662354,1045.601318 1246.171509,918.857788 1193.176147,790.895996 
	C1191.926147,793.351196 1191.060669,794.803284 1190.419189,796.348511 
	C1180.800049,819.518188 1171.209595,842.699646 1161.614502,865.879333 
	C1152.207886,888.603271 1142.805176,911.328674 1133.398193,934.052368 
	C1119.550171,967.504639 1105.702271,1000.957092 1091.849731,1034.407471 
	C1078.379395,1066.934814 1064.902222,1099.459351 1051.429199,1131.985596 
	C1037.510254,1165.588623 1023.591125,1199.191772 1009.674805,1232.796021 
	C996.268188,1265.169434 982.863892,1297.543945 969.461792,1329.919312 
	C967.884583,1333.729370 966.098938,1337.473022 964.822266,1341.382202 
	C963.402893,1345.728516 961.057312,1347.275391 956.219971,1347.244629 
	C917.556519,1346.999146 878.890869,1347.107544 840.225891,1347.107544 
	C830.406311,1347.107544 820.586731,1347.107544 809.843384,1347.107544 
	C811.900330,1342.061035 813.680847,1337.547241 815.569885,1333.079468 
	C853.411499,1243.578247 891.265991,1154.082397 929.117493,1064.585327 
	C950.170288,1014.807861 971.223877,965.030823 992.274658,915.252502 
	C1016.943848,856.918091 1041.616089,798.585022 1066.274902,740.246277 
	C1077.653198,713.327026 1089.035034,686.409058 1100.319458,659.450378 
	C1101.557251,656.493286 1103.031982,655.148499 1106.533447,655.156311 
	C1163.363892,655.283508 1220.194946,655.272827 1277.025635,655.197144 
	C1281.662354,655.190979 1284.344116,656.397949 1286.326416,661.238403 
	C1300.698730,696.333923 1315.364258,731.311096 1330.160645,766.230957 
	C1372.402588,865.922668 1414.797363,965.549561 1457.043457,1065.239380 
	C1496.221069,1157.688232 1535.284668,1250.185547 1574.395874,1342.662476 
	C1574.901611,1343.858398 1575.375488,1345.067505 1576.059814,1346.751465 
	C1426.846313,1346.751465 1278.145996,1346.751465 1128.653076,1346.751465 
	C1130.234375,1342.316772 1131.624878,1338.150024 1133.197266,1334.053223 
	C1140.669678,1314.583862 1148.202515,1295.137695 1155.692871,1275.675293 
	C1162.377197,1258.307617 1169.160156,1240.976074 1175.599609,1223.517944 
	C1176.927368,1219.918091 1178.596436,1218.797974 1182.380737,1218.805664 
	C1242.711182,1218.928833 1303.041992,1218.892456 1363.372681,1218.892456 
	C1365.357300,1218.892456 1367.341797,1218.892456 1370.394531,1218.892456 
	C1363.908203,1203.182129 1357.687012,1188.114014 1351.309570,1172.695435 
z"/>
<path fill="#1CF479" opacity="1.000000" stroke="none" 
	d="
M682.927002,1347.107178 
	C637.492981,1347.107300 592.551086,1347.107300 547.305542,1347.107300 
	C547.305542,1116.384155 547.305542,886.191467 547.305542,655.748169 
	C594.753723,655.748169 642.126831,655.748169 689.802612,655.748169 
	C689.802612,886.278687 689.802612,1116.308350 689.802612,1347.107056 
	C687.603394,1347.107056 685.511230,1347.107056 682.927002,1347.107178 
z"/>
</svg>